<svg width="181" height="194" viewBox="0 0 181 194" fill="none" xmlns="http://www.w3.org/2000/svg">
<path d="M27.4043 181.047V191H26.085V181.047H27.4043ZM37.46 181.047V191H36.1338L31.123 183.323V191H29.8037V181.047H31.123L36.1543 188.744V181.047H37.46ZM45.1025 188.484C45.1025 188.252 45.0661 188.047 44.9932 187.869C44.9248 187.687 44.8018 187.523 44.624 187.377C44.4508 187.231 44.2093 187.092 43.8994 186.96C43.5941 186.828 43.2067 186.693 42.7373 186.557C42.2451 186.411 41.8008 186.249 41.4043 186.071C41.0078 185.889 40.6683 185.682 40.3857 185.449C40.1032 185.217 39.8867 184.95 39.7363 184.649C39.5859 184.349 39.5107 184.005 39.5107 183.617C39.5107 183.23 39.5905 182.872 39.75 182.544C39.9095 182.216 40.1374 181.931 40.4336 181.689C40.7344 181.443 41.0921 181.252 41.5068 181.115C41.9215 180.979 42.3841 180.91 42.8945 180.91C43.6419 180.91 44.2754 181.054 44.7949 181.341C45.319 181.623 45.7178 181.995 45.9912 182.455C46.2646 182.911 46.4014 183.398 46.4014 183.918H45.0889C45.0889 183.544 45.0091 183.214 44.8496 182.927C44.6901 182.635 44.4486 182.407 44.125 182.243C43.8014 182.075 43.3913 181.99 42.8945 181.99C42.4251 181.99 42.0378 182.061 41.7324 182.202C41.4271 182.343 41.1992 182.535 41.0488 182.776C40.903 183.018 40.8301 183.294 40.8301 183.604C40.8301 183.813 40.8734 184.005 40.96 184.178C41.0511 184.346 41.1901 184.504 41.377 184.649C41.5684 184.795 41.8099 184.93 42.1016 185.053C42.3978 185.176 42.751 185.294 43.1611 185.408C43.7262 185.568 44.2139 185.745 44.624 185.941C45.0342 186.137 45.3714 186.358 45.6357 186.604C45.9046 186.846 46.1029 187.122 46.2305 187.432C46.3626 187.737 46.4287 188.083 46.4287 188.471C46.4287 188.876 46.3467 189.243 46.1826 189.571C46.0186 189.899 45.7839 190.18 45.4785 190.412C45.1732 190.645 44.8063 190.825 44.3779 190.952C43.9541 191.075 43.4801 191.137 42.9561 191.137C42.4958 191.137 42.0423 191.073 41.5957 190.945C41.1536 190.818 40.7503 190.626 40.3857 190.371C40.0257 190.116 39.7363 189.801 39.5176 189.428C39.3034 189.049 39.1963 188.612 39.1963 188.115H40.5088C40.5088 188.457 40.5749 188.751 40.707 188.997C40.8392 189.239 41.0192 189.439 41.2471 189.599C41.4795 189.758 41.7415 189.877 42.0332 189.954C42.3294 190.027 42.637 190.063 42.9561 190.063C43.4163 190.063 43.806 190 44.125 189.872C44.444 189.744 44.6855 189.562 44.8496 189.325C45.0182 189.088 45.1025 188.808 45.1025 188.484ZM49.5254 181.047V191H48.2061V181.047H49.5254ZM59.2803 186.044V189.688C59.1572 189.87 58.9613 190.075 58.6924 190.303C58.4235 190.526 58.0521 190.722 57.5781 190.891C57.1087 191.055 56.5026 191.137 55.7598 191.137C55.1536 191.137 54.5954 191.032 54.085 190.822C53.5791 190.608 53.1393 190.298 52.7656 189.893C52.3965 189.482 52.1094 188.986 51.9043 188.402C51.7038 187.814 51.6035 187.149 51.6035 186.406V185.634C51.6035 184.891 51.6901 184.228 51.8633 183.645C52.041 183.061 52.3008 182.567 52.6426 182.161C52.9844 181.751 53.4036 181.441 53.9004 181.231C54.3971 181.017 54.9668 180.91 55.6094 180.91C56.3704 180.91 57.0062 181.042 57.5166 181.307C58.0316 181.566 58.4326 181.926 58.7197 182.387C59.0114 182.847 59.1982 183.371 59.2803 183.959H57.9609C57.9017 183.599 57.7832 183.271 57.6055 182.975C57.4323 182.678 57.1839 182.441 56.8604 182.264C56.5368 182.081 56.1198 181.99 55.6094 181.99C55.1491 181.99 54.7503 182.075 54.4131 182.243C54.0758 182.412 53.7979 182.653 53.5791 182.968C53.3604 183.282 53.1963 183.663 53.0869 184.109C52.9821 184.556 52.9297 185.06 52.9297 185.62V186.406C52.9297 186.98 52.9958 187.493 53.1279 187.944C53.2646 188.396 53.4583 188.781 53.709 189.1C53.9596 189.414 54.2581 189.653 54.6045 189.817C54.9554 189.981 55.3428 190.063 55.7666 190.063C56.236 190.063 56.6165 190.025 56.9082 189.947C57.1999 189.865 57.4277 189.77 57.5918 189.66C57.7559 189.546 57.8812 189.439 57.9678 189.339V187.11H55.6641V186.044H59.2803ZM67.9688 185.326V186.399H62.582V185.326H67.9688ZM62.7871 181.047V191H61.4678V181.047H62.7871ZM69.1172 181.047V191H67.8047V181.047H69.1172ZM74.9346 181.047V191H73.6357V181.047H74.9346ZM78.1338 181.047V182.127H70.4434V181.047H78.1338ZM77.9492 190.33C77.9492 190.116 78.0153 189.936 78.1475 189.79C78.2842 189.64 78.4801 189.564 78.7354 189.564C78.9906 189.564 79.1842 189.64 79.3164 189.79C79.4531 189.936 79.5215 190.116 79.5215 190.33C79.5215 190.54 79.4531 190.717 79.3164 190.863C79.1842 191.009 78.9906 191.082 78.7354 191.082C78.4801 191.082 78.2842 191.009 78.1475 190.863C78.0153 190.717 77.9492 190.54 77.9492 190.33ZM87.8203 187.835H89.1328C89.0645 188.464 88.8844 189.027 88.5928 189.523C88.3011 190.02 87.8887 190.414 87.3555 190.706C86.8223 190.993 86.1569 191.137 85.3594 191.137C84.776 191.137 84.2451 191.027 83.7666 190.809C83.2926 190.59 82.8848 190.28 82.543 189.879C82.2012 189.473 81.9368 188.988 81.75 188.423C81.5677 187.853 81.4766 187.22 81.4766 186.522V185.531C81.4766 184.834 81.5677 184.203 81.75 183.638C81.9368 183.068 82.2035 182.58 82.5498 182.175C82.9007 181.769 83.3223 181.457 83.8145 181.238C84.3066 181.02 84.8604 180.91 85.4756 180.91C86.2275 180.91 86.8633 181.051 87.3828 181.334C87.9023 181.617 88.3057 182.008 88.5928 182.51C88.8844 183.007 89.0645 183.583 89.1328 184.239H87.8203C87.7565 183.774 87.638 183.376 87.4648 183.043C87.2917 182.706 87.0456 182.446 86.7266 182.264C86.4076 182.081 85.9906 181.99 85.4756 181.99C85.0335 181.99 84.6439 182.075 84.3066 182.243C83.974 182.412 83.6937 182.651 83.4658 182.961C83.2425 183.271 83.0739 183.642 82.96 184.075C82.846 184.508 82.7891 184.989 82.7891 185.518V186.522C82.7891 187.01 82.8392 187.468 82.9395 187.896C83.0443 188.325 83.2015 188.701 83.4111 189.024C83.6208 189.348 83.8874 189.603 84.2109 189.79C84.5345 189.972 84.9173 190.063 85.3594 190.063C85.9199 190.063 86.3665 189.975 86.6992 189.797C87.0319 189.619 87.2826 189.364 87.4512 189.031C87.6243 188.699 87.7474 188.3 87.8203 187.835ZM90.9307 181.047H94.2256C94.973 181.047 95.6042 181.161 96.1191 181.389C96.6387 181.617 97.0329 181.954 97.3018 182.4C97.5752 182.842 97.7119 183.387 97.7119 184.034C97.7119 184.49 97.6185 184.907 97.4316 185.285C97.2493 185.659 96.985 185.978 96.6387 186.242C96.2969 186.502 95.8867 186.696 95.4082 186.823L95.0391 186.967H91.9424L91.9287 185.894H94.2666C94.7406 185.894 95.1348 185.812 95.4492 185.647C95.7637 185.479 96.0007 185.253 96.1602 184.971C96.3197 184.688 96.3994 184.376 96.3994 184.034C96.3994 183.651 96.3242 183.316 96.1738 183.029C96.0234 182.742 95.7865 182.521 95.4629 182.366C95.1439 182.207 94.7314 182.127 94.2256 182.127H92.25V191H90.9307V181.047ZM96.748 191L94.3281 186.488L95.7021 186.481L98.1562 190.918V191H96.748ZM105.881 189.927V191H100.61V189.927H105.881ZM100.877 181.047V191H99.5576V181.047H100.877ZM105.184 185.326V186.399H100.61V185.326H105.184ZM105.812 181.047V182.127H100.61V181.047H105.812ZM111.199 181.929L107.904 191H106.558L110.352 181.047H111.22L111.199 181.929ZM113.961 191L110.659 181.929L110.639 181.047H111.507L115.314 191H113.961ZM113.79 187.315V188.396H108.198V187.315H113.79ZM119.437 181.047V191H118.138V181.047H119.437ZM122.636 181.047V182.127H114.945V181.047H122.636ZM125.527 181.047V191H124.208V181.047H125.527ZM131.14 189.489L134.072 181.047H135.501L131.816 191H130.798L131.14 189.489ZM128.398 181.047L131.304 189.489L131.666 191H130.647L126.97 181.047H128.398ZM138.256 181.047V191H136.937V181.047H138.256ZM144.128 181.047V191H142.829V181.047H144.128ZM147.327 181.047V182.127H139.637V181.047H147.327ZM149.371 181.047L151.955 186.044L154.546 181.047H156.043L152.611 187.281V191H151.292V187.281L147.86 181.047H149.371Z" fill="#ED931C"/>
<path d="M21.7764 145.383H24.4243L31.1787 162.191L37.9189 145.383H40.5811L32.1982 166H30.1309L21.7764 145.383ZM20.9126 145.383H23.249L23.6313 157.957V166H20.9126V145.383ZM39.0942 145.383H41.4307V166H38.7119V157.957L39.0942 145.383ZM54.8687 163.38V155.493C54.8687 154.889 54.7459 154.365 54.5005 153.921C54.2645 153.468 53.9058 153.119 53.4243 152.874C52.9429 152.628 52.3481 152.505 51.6401 152.505C50.9793 152.505 50.3988 152.619 49.8984 152.845C49.4076 153.072 49.0205 153.369 48.7373 153.737C48.4635 154.105 48.3267 154.502 48.3267 154.927H45.707C45.707 154.379 45.8486 153.836 46.1318 153.298C46.415 152.76 46.821 152.274 47.3496 151.84C47.8877 151.396 48.5296 151.047 49.2754 150.792C50.0306 150.528 50.8708 150.396 51.7959 150.396C52.9098 150.396 53.8916 150.584 54.7412 150.962C55.6003 151.34 56.2705 151.911 56.752 152.675C57.2428 153.431 57.4883 154.379 57.4883 155.521V162.658C57.4883 163.168 57.5308 163.711 57.6157 164.287C57.7101 164.862 57.847 165.358 58.0264 165.773V166H55.2935C55.1613 165.698 55.0575 165.297 54.9819 164.796C54.9064 164.287 54.8687 163.815 54.8687 163.38ZM55.3218 156.711L55.3501 158.552H52.7021C51.9564 158.552 51.2909 158.613 50.7056 158.736C50.1203 158.849 49.6294 159.024 49.2329 159.26C48.8364 159.496 48.5343 159.793 48.3267 160.152C48.119 160.501 48.0151 160.912 48.0151 161.384C48.0151 161.865 48.1237 162.304 48.3408 162.701C48.5579 163.097 48.8836 163.413 49.3179 163.649C49.7616 163.876 50.3044 163.989 50.9463 163.989C51.7487 163.989 52.4567 163.819 53.0703 163.479C53.6839 163.14 54.1701 162.724 54.5288 162.233C54.897 161.743 55.0952 161.266 55.1235 160.803L56.2422 162.063C56.1761 162.46 55.9967 162.899 55.7041 163.38C55.4115 163.862 55.0197 164.324 54.5288 164.768C54.0474 165.202 53.4715 165.566 52.8013 165.858C52.1405 166.142 51.3947 166.283 50.564 166.283C49.5256 166.283 48.6146 166.08 47.8311 165.674C47.057 165.268 46.4528 164.726 46.0186 164.046C45.5938 163.357 45.3813 162.587 45.3813 161.738C45.3813 160.917 45.5418 160.194 45.8628 159.571C46.1838 158.939 46.6463 158.415 47.2505 158C47.8547 157.575 48.5815 157.254 49.4312 157.037C50.2808 156.819 51.2295 156.711 52.2773 156.711H55.3218ZM64.2285 153.086V166H61.6089V150.679H64.1577L64.2285 153.086ZM69.0146 150.594L69.0005 153.029C68.7834 152.982 68.5757 152.954 68.3774 152.944C68.1886 152.925 67.9715 152.916 67.7261 152.916C67.1219 152.916 66.5885 153.01 66.126 153.199C65.6634 153.388 65.2716 153.652 64.9507 153.992C64.6297 154.332 64.3748 154.738 64.186 155.21C64.0067 155.673 63.8887 156.182 63.832 156.739L63.0957 157.164C63.0957 156.239 63.1854 155.37 63.3647 154.559C63.5535 153.747 63.8415 153.029 64.2285 152.406C64.6156 151.774 65.1064 151.283 65.7012 150.934C66.3053 150.575 67.0228 150.396 67.8535 150.396C68.0423 150.396 68.2594 150.419 68.5049 150.466C68.7503 150.504 68.9202 150.547 69.0146 150.594ZM79.9038 163.38V155.493C79.9038 154.889 79.7811 154.365 79.5356 153.921C79.2996 153.468 78.9409 153.119 78.4595 152.874C77.978 152.628 77.3833 152.505 76.6753 152.505C76.0145 152.505 75.4339 152.619 74.9336 152.845C74.4427 153.072 74.0557 153.369 73.7725 153.737C73.4987 154.105 73.3618 154.502 73.3618 154.927H70.7422C70.7422 154.379 70.8838 153.836 71.167 153.298C71.4502 152.76 71.8561 152.274 72.3848 151.84C72.9229 151.396 73.5648 151.047 74.3105 150.792C75.0658 150.528 75.9059 150.396 76.8311 150.396C77.945 150.396 78.9268 150.584 79.7764 150.962C80.6354 151.34 81.3057 151.911 81.7871 152.675C82.278 153.431 82.5234 154.379 82.5234 155.521V162.658C82.5234 163.168 82.5659 163.711 82.6509 164.287C82.7453 164.862 82.8822 165.358 83.0615 165.773V166H80.3286C80.1965 165.698 80.0926 165.297 80.0171 164.796C79.9416 164.287 79.9038 163.815 79.9038 163.38ZM80.3569 156.711L80.3853 158.552H77.7373C76.9915 158.552 76.326 158.613 75.7407 158.736C75.1554 158.849 74.6646 159.024 74.2681 159.26C73.8716 159.496 73.5695 159.793 73.3618 160.152C73.1541 160.501 73.0503 160.912 73.0503 161.384C73.0503 161.865 73.1589 162.304 73.376 162.701C73.5931 163.097 73.9188 163.413 74.353 163.649C74.7967 163.876 75.3395 163.989 75.9814 163.989C76.7839 163.989 77.4919 163.819 78.1055 163.479C78.7191 163.14 79.2052 162.724 79.564 162.233C79.9321 161.743 80.1304 161.266 80.1587 160.803L81.2773 162.063C81.2113 162.46 81.0319 162.899 80.7393 163.38C80.4466 163.862 80.0549 164.324 79.564 164.768C79.0825 165.202 78.5067 165.566 77.8364 165.858C77.1756 166.142 76.4299 166.283 75.5991 166.283C74.5607 166.283 73.6497 166.08 72.8662 165.674C72.0921 165.268 71.488 164.726 71.0537 164.046C70.6289 163.357 70.4165 162.587 70.4165 161.738C70.4165 160.917 70.577 160.194 70.8979 159.571C71.2189 158.939 71.6815 158.415 72.2856 158C72.8898 157.575 73.6167 157.254 74.4663 157.037C75.3159 156.819 76.2646 156.711 77.3125 156.711H80.3569ZM94.6729 147.209L87.8477 166H85.0581L92.917 145.383H94.7153L94.6729 147.209ZM100.394 166L93.5542 147.209L93.5117 145.383H95.3101L103.197 166H100.394ZM100.04 158.368V160.605H88.4565V158.368H100.04ZM108.182 153.086V166H105.562V150.679H108.111L108.182 153.086ZM112.968 150.594L112.954 153.029C112.736 152.982 112.529 152.954 112.331 152.944C112.142 152.925 111.925 152.916 111.679 152.916C111.075 152.916 110.542 153.01 110.079 153.199C109.617 153.388 109.225 153.652 108.904 153.992C108.583 154.332 108.328 154.738 108.139 155.21C107.96 155.673 107.842 156.182 107.785 156.739L107.049 157.164C107.049 156.239 107.139 155.37 107.318 154.559C107.507 153.747 107.795 153.029 108.182 152.406C108.569 151.774 109.06 151.283 109.654 150.934C110.258 150.575 110.976 150.396 111.807 150.396C111.995 150.396 112.213 150.419 112.458 150.466C112.703 150.504 112.873 150.547 112.968 150.594ZM119.524 163.281L123.46 150.679H125.188L124.848 153.185L120.841 166H119.156L119.524 163.281ZM116.876 150.679L120.232 163.423L120.473 166H118.703L114.256 150.679H116.876ZM128.955 163.324L132.155 150.679H134.76L130.314 166H128.558L128.955 163.324ZM125.57 150.679L129.422 163.069L129.861 166H128.19L124.069 153.157L123.729 150.679H125.57ZM136.757 158.509V158.184C136.757 157.079 136.917 156.055 137.238 155.111C137.559 154.157 138.022 153.331 138.626 152.633C139.23 151.925 139.962 151.377 140.821 150.99C141.68 150.594 142.643 150.396 143.709 150.396C144.786 150.396 145.753 150.594 146.612 150.99C147.481 151.377 148.217 151.925 148.821 152.633C149.435 153.331 149.902 154.157 150.223 155.111C150.544 156.055 150.705 157.079 150.705 158.184V158.509C150.705 159.614 150.544 160.638 150.223 161.582C149.902 162.526 149.435 163.352 148.821 164.06C148.217 164.759 147.486 165.306 146.626 165.703C145.777 166.09 144.814 166.283 143.738 166.283C142.662 166.283 141.694 166.09 140.835 165.703C139.976 165.306 139.24 164.759 138.626 164.06C138.022 163.352 137.559 162.526 137.238 161.582C136.917 160.638 136.757 159.614 136.757 158.509ZM139.376 158.184V158.509C139.376 159.274 139.466 159.996 139.646 160.676C139.825 161.346 140.094 161.941 140.453 162.46C140.821 162.979 141.279 163.39 141.826 163.692C142.374 163.985 143.011 164.131 143.738 164.131C144.455 164.131 145.083 163.985 145.621 163.692C146.169 163.39 146.622 162.979 146.98 162.46C147.339 161.941 147.608 161.346 147.788 160.676C147.976 159.996 148.071 159.274 148.071 158.509V158.184C148.071 157.428 147.976 156.716 147.788 156.045C147.608 155.366 147.334 154.766 146.966 154.247C146.608 153.718 146.154 153.303 145.607 153.001C145.069 152.699 144.436 152.548 143.709 152.548C142.992 152.548 142.36 152.699 141.812 153.001C141.274 153.303 140.821 153.718 140.453 154.247C140.094 154.766 139.825 155.366 139.646 156.045C139.466 156.716 139.376 157.428 139.376 158.184ZM160.404 150.679V152.689H152.121V150.679H160.404ZM154.924 146.955H157.544V162.205C157.544 162.724 157.624 163.116 157.785 163.38C157.945 163.645 158.153 163.819 158.408 163.904C158.663 163.989 158.936 164.032 159.229 164.032C159.446 164.032 159.673 164.013 159.909 163.975C160.154 163.928 160.338 163.89 160.461 163.862L160.475 166C160.267 166.066 159.994 166.127 159.654 166.184C159.323 166.25 158.922 166.283 158.45 166.283C157.808 166.283 157.218 166.156 156.68 165.901C156.142 165.646 155.713 165.221 155.392 164.626C155.08 164.022 154.924 163.21 154.924 162.191V146.955Z" fill="white"/>
<line x1="81.3865" y1="73.426" x2="41.0534" y2="131.506" stroke="#ED931C" stroke-width="5"/>
<line x1="40.7832" y1="11.4354" x2="122.322" y2="128.71" stroke="#ED931C" stroke-width="5"/>
<path d="M110.619 19.9999C108.317 19.9999 106.067 20.6823 104.154 21.9609C102.24 23.2395 100.749 25.0568 99.8682 27.183C98.9875 29.3093 98.7571 31.6489 99.2061 33.9061C99.655 36.1632 100.763 38.2366 102.391 39.8639C104.018 41.4913 106.091 42.5995 108.348 43.0485C110.606 43.4975 112.945 43.267 115.071 42.3863C117.198 41.5056 119.015 40.0142 120.294 38.1006C121.572 36.1871 122.255 33.9374 122.255 31.636C122.251 28.551 121.024 25.5933 118.843 23.4119C116.661 21.2305 113.704 20.0034 110.619 19.9999ZM110.619 37.454C109.468 37.454 108.343 37.1128 107.386 36.4735C106.429 35.8342 105.684 34.9256 105.243 33.8624C104.803 32.7993 104.688 31.6295 104.912 30.5009C105.137 29.3723 105.691 28.3357 106.505 27.522C107.318 26.7083 108.355 26.1542 109.484 25.9297C110.612 25.7052 111.782 25.8205 112.845 26.2608C113.908 26.7012 114.817 27.4469 115.456 28.4037C116.095 29.3604 116.437 30.4853 116.437 31.636C116.435 33.1785 115.821 34.6573 114.731 35.748C113.64 36.8387 112.161 37.4522 110.619 37.454Z" fill="#ED931C"/>
<path d="M132.978 9.25889C127.45 3.73183 120.07 0.448531 112.263 0.0426745C104.456 -0.363182 96.7758 2.13718 90.704 7.06117C84.6322 11.9852 80.5996 18.9837 79.3844 26.7062C78.1693 34.4286 79.8577 42.3274 84.1239 48.8781L106.106 82.6251C106.596 83.376 107.265 83.993 108.052 84.4201C108.84 84.8471 109.722 85.0708 110.619 85.0708C111.515 85.0708 112.397 84.8471 113.185 84.4201C113.973 83.993 114.642 83.376 115.131 82.6251L137.114 48.8781C141.073 42.8014 142.822 35.5486 142.069 28.3354C141.316 21.1222 138.107 14.3871 132.978 9.25889ZM132.239 45.7024L110.619 78.8925L88.998 45.7024C82.38 35.5428 83.7994 21.9468 92.373 13.3728C94.769 10.9767 97.6136 9.07598 100.744 7.77921C103.875 6.48245 107.23 5.81501 110.619 5.81501C114.007 5.81501 117.363 6.48245 120.493 7.77921C123.624 9.07598 126.468 10.9767 128.864 13.3728C137.438 21.9468 138.857 35.5428 132.239 45.7024Z" fill="#ED931C"/>
</svg>
